# xmcd
#
# Track frame offsets:
#	150
#	12556
#	32290
#	41366
#	56378
#	85726
#	99837
#	109469
#	130718
#	148670
#	172109
#	185066
#	196001
#	208638
#	226564
#	239178
#	251406
#	265403
#	287403
#	314202
#
# Disc length: 4501 seconds
#
# Revision: 1
# Processed by: cddbd v1.5.2PL0 Copyright (c) Steve Scherf et al.
# Submitted via: EZCDAudioConverter 2.1.7.1
#
DISCID=18119314
DTITLE=Cream - Fresh Cream 2/3
DYEAR=1900
DGENRE=
TTITLE0=N.S.U.
TTITLE1=Sleepy Time Time
TTITLE2=Dreaming
TTITLE3=Sweet Wine
TTITLE4=Spoonful
TTITLE5=Cat's Squirrel
TTITLE6=Four Until Late
TTITLE7=Rollin' And Tumblin'
TTITLE8=I'm So Glad
TTITLE9=Toad
TTITLE10=I Feel Free [Session Recordings - Stereo]
TTITLE11=Wrapping Paper [Session Recordings - Stereo]
TTITLE12=The Coffee Song [Session Recordings - Stereo]
TTITLE13=I'm So Glad [New Stereo Mix]
TTITLE14=N.S.U. [New Stereo Mix]
TTITLE15=Wrapping Paper [New Stereo Mix]
TTITLE16=The Coffee Song [New Stereo Mix]
TTITLE17=Rollin' And Tumblin' [First Version - New Stereo Mix]
TTITLE18=Spoonful [First Version - New Stereo Mix]
TTITLE19=Toad [New Stereo Mix]
EXTD=
EXTT0=
EXTT1=
EXTT2=
EXTT3=
EXTT4=
EXTT5=
EXTT6=
EXTT7=
EXTT8=
EXTT9=
EXTT10=
EXTT11=
EXTT12=
EXTT13=
EXTT14=
EXTT15=
EXTT16=
EXTT17=
EXTT18=
EXTT19=
PLAYORDER=
